<svg width="40" height="40" viewBox="0 0 40 40" fill="none" xmlns="http://www.w3.org/2000/svg">
<g clip-path="url(#clip0_3996_82900)">
<path d="M9.46979 4.1875C9.91637 3.414 10.7417 2.9375 11.6349 2.9375L28.8616 2.9375C29.7548 2.9375 30.5801 3.414 31.0267 4.1875L39.64 19.1063C40.0866 19.8798 40.0866 20.8328 39.64 21.6063L33.0098 33.0902L30.8447 29.3402L36.0316 20.3563L28.1399 6.6875L12.3565 6.6875L7.19646 15.625H2.86633L9.46979 4.1875Z" fill="#FCFCFC"/>
<path d="M28.177 33.9608L30.1669 37.4073C29.7804 37.6438 29.3304 37.7751 28.8616 37.7751H11.6349C10.7417 37.7751 9.91638 37.2986 9.46979 36.5251L0.856421 21.6063C0.625582 21.2065 0.514064 20.7587 0.521867 20.3125L19.2283 20.3124C19.8996 20.3124 20.5197 20.6713 20.8541 21.2534L28.1655 33.9807L28.177 33.9608Z" fill="#FCFCFC"/>
<mask id="mask0_3996_82900" style="mask-type:alpha" maskUnits="userSpaceOnUse" x="0" y="17" width="31" height="28">
<rect y="17" width="30.3115" height="28" fill="#D9D9D9"/>
</mask>
<g mask="url(#mask0_3996_82900)">
<path d="M9.46784 4.1875C9.91442 3.414 10.7397 2.9375 11.6329 2.9375L28.8596 2.9375C29.7528 2.9375 30.5781 3.414 31.0247 4.1875L39.6381 19.1063C40.0847 19.8798 40.0847 20.8328 39.6381 21.6063L33.0078 33.0902L30.8428 29.3402L36.0296 20.3563L28.138 6.6875L12.3546 6.6875L7.19451 15.625H2.86438L9.46784 4.1875Z" fill="#0C68E9"/>
<path d="M28.1751 33.9608L30.1649 37.4073C29.7785 37.6438 29.3284 37.7751 28.8596 37.7751H11.6329C10.7397 37.7751 9.91442 37.2986 9.46784 36.5251L0.854468 21.6063C0.623629 21.2065 0.51211 20.7587 0.519914 20.3125L19.2263 20.3124C19.8976 20.3124 20.5177 20.6713 20.8521 21.2534L28.1636 33.9807L28.1751 33.9608Z" fill="#0C68E9"/>
</g>
</g>
<defs>
<clipPath id="clip0_3996_82900">
<rect width="40" height="40" fill="white"/>
</clipPath>
</defs>
</svg>
